<svg xmlns="http://www.w3.org/2000/svg" viewBox="0 0 960 360" role="img" aria-labelledby="title desc">
  <title id="title">Robo, Dino, Bunny together</title>
  <desc id="desc">One-world consistency check showing the three Banghub characters side by side on the shared palette background.</desc>
  <defs>
    <linearGradient id="sky" x1="0" y1="0" x2="0" y2="1">
      <stop offset="0%" stop-color="#dff5ff"/>
      <stop offset="100%" stop-color="#f7fbff"/>
    </linearGradient>
  </defs>
  <rect width="960" height="360" fill="url(#sky)"/>
  <path d="M0 300 q160 -30 320 0 q160 -30 320 0 q160 -30 320 0 v60 H0z" fill="#87d070"/>
  <path d="M0 322 q160 -18 320 0 q160 -18 320 0 q160 -18 320 0 v38 H0z" fill="#73c96b"/>

  <g transform="translate(20 20)">
    <rect x="0" y="0" width="300" height="320" rx="16" fill="#ffffff" opacity="0.55"/>
    <text x="150" y="300" text-anchor="middle" font-family="system-ui, sans-serif" font-size="18" fill="#27313b" font-weight="700">Robo</text>
    <svg x="0" y="0" width="300" height="290" viewBox="0 0 320 320">
      <g stroke="#27313b" stroke-width="4" stroke-linejoin="round" stroke-linecap="round">
        <line x1="160" y1="50" x2="160" y2="24" fill="none"/>
        <circle cx="160" cy="20" r="10" fill="#ffd84d"/>
        <rect x="96" y="52" width="128" height="110" rx="36" fill="#dff5ff"/>
        <rect x="148" y="160" width="24" height="14" rx="4" fill="#5aa9d8"/>
        <rect x="84" y="170" width="152" height="118" rx="30" fill="#dff5ff"/>
        <rect x="126" y="196" width="68" height="46" rx="8" fill="#5aa9d8"/>
        <circle cx="160" cy="219" r="7" fill="#ffd84d" stroke-width="3"/>
        <rect x="62" y="204" width="28" height="56" rx="12" fill="#dff5ff"/>
        <path d="M236 196 q22 -22 42 -38" fill="none"/>
        <circle cx="282" cy="152" r="18" fill="#dff5ff"/>
        <rect x="108" y="284" width="32" height="26" rx="12" fill="#dff5ff"/>
        <rect x="180" y="284" width="32" height="26" rx="12" fill="#dff5ff"/>
      </g>
      <g fill="#27313b"><circle cx="132" cy="102" r="9"/><circle cx="188" cy="102" r="9"/></g>
      <g fill="#ffffff"><circle cx="135" cy="99" r="3"/><circle cx="191" cy="99" r="3"/></g>
      <path d="M141 130 q19 14 38 0" stroke="#27313b" stroke-width="3" fill="none" stroke-linecap="round"/>
      <circle cx="112" cy="128" r="8" fill="#f298b8" opacity="0.4"/>
      <circle cx="208" cy="128" r="8" fill="#f298b8" opacity="0.4"/>
    </svg>
  </g>

  <g transform="translate(330 20)">
    <rect x="0" y="0" width="300" height="320" rx="16" fill="#ffffff" opacity="0.55"/>
    <text x="150" y="300" text-anchor="middle" font-family="system-ui, sans-serif" font-size="18" fill="#27313b" font-weight="700">Dino</text>
    <svg x="0" y="0" width="300" height="290" viewBox="0 0 320 320">
      <g stroke="#27313b" stroke-width="4" stroke-linejoin="round" stroke-linecap="round">
        <path d="M118 118 q10 -28 28 -18 q2 14 -28 18z" fill="#4fa85a" stroke-width="3"/>
        <path d="M148 108 q12 -30 30 -18 q2 16 -30 18z" fill="#4fa85a" stroke-width="3"/>
        <path d="M180 110 q12 -26 28 -14 q2 14 -28 14z" fill="#4fa85a" stroke-width="3"/>
        <ellipse cx="160" cy="190" rx="88" ry="98" fill="#87d070"/>
        <ellipse cx="160" cy="226" rx="54" ry="58" fill="#b9e8b6" stroke-width="3"/>
        <ellipse cx="78" cy="206" rx="16" ry="22" fill="#87d070" stroke-width="3"/>
        <ellipse cx="242" cy="206" rx="16" ry="22" fill="#87d070" stroke-width="3"/>
        <ellipse cx="118" cy="286" rx="22" ry="22" fill="#87d070" stroke-width="3"/>
        <ellipse cx="202" cy="286" rx="22" ry="22" fill="#87d070" stroke-width="3"/>
      </g>
      <g fill="#ffffff" stroke="#27313b" stroke-width="3"><circle cx="128" cy="150" r="14"/><circle cx="192" cy="150" r="14"/></g>
      <g fill="#27313b"><circle cx="130" cy="152" r="7"/><circle cx="194" cy="152" r="7"/></g>
      <g fill="#ffffff"><circle cx="133" cy="149" r="2.5"/><circle cx="197" cy="149" r="2.5"/></g>
      <path d="M124 196 q36 36 72 0 z" fill="#e55a5a" stroke="#27313b" stroke-width="4" stroke-linejoin="round"/>
      <path d="M124 196 q36 6 72 0" stroke="none" fill="#f39aa0"/>
      <circle cx="106" cy="186" r="9" fill="#f298b8" opacity="0.4"/>
      <circle cx="214" cy="186" r="9" fill="#f298b8" opacity="0.4"/>
    </svg>
  </g>

  <g transform="translate(640 20)">
    <rect x="0" y="0" width="300" height="320" rx="16" fill="#ffffff" opacity="0.55"/>
    <text x="150" y="300" text-anchor="middle" font-family="system-ui, sans-serif" font-size="18" fill="#27313b" font-weight="700">Bunny</text>
    <svg x="0" y="0" width="300" height="290" viewBox="0 0 320 320">
      <g stroke="#27313b" stroke-width="4" stroke-linejoin="round" stroke-linecap="round">
        <path d="M108 88 q-16 -62 12 -68 q24 -4 20 68z" fill="#faf5ec"/>
        <path d="M212 88 q16 -64 -14 -66 q-22 0 -18 66z" fill="#faf5ec"/>
      </g>
      <path d="M114 84 q-8 -50 16 -54 q16 -2 14 54z" fill="#f298b8"/>
      <path d="M206 84 q8 -50 -16 -50 q-16 2 -12 50z" fill="#f298b8"/>
      <ellipse cx="160" cy="140" rx="82" ry="74" fill="#faf5ec" stroke="#27313b" stroke-width="4"/>
      <path d="M126 128 q12 -10 24 0" stroke="#27313b" stroke-width="4" fill="none" stroke-linecap="round"/>
      <path d="M170 128 q12 -10 24 0" stroke="#27313b" stroke-width="4" fill="none" stroke-linecap="round"/>
      <ellipse cx="160" cy="152" rx="7" ry="5" fill="#f298b8" stroke="#27313b" stroke-width="2"/>
      <path d="M160 158 v8" stroke="#27313b" stroke-width="3" fill="none" stroke-linecap="round"/>
      <path d="M150 170 q10 10 20 0" stroke="#27313b" stroke-width="3" fill="none" stroke-linecap="round"/>
      <circle cx="108" cy="158" r="9" fill="#f298b8" opacity="0.4"/>
      <circle cx="212" cy="158" r="9" fill="#f298b8" opacity="0.4"/>
      <ellipse cx="160" cy="240" rx="66" ry="64" fill="#faf5ec" stroke="#27313b" stroke-width="4"/>
      <ellipse cx="160" cy="256" rx="40" ry="42" fill="#fffaf2"/>
      <ellipse cx="224" cy="248" rx="16" ry="20" fill="#faf5ec" stroke="#27313b" stroke-width="3"/>
      <ellipse cx="100" cy="216" rx="16" ry="18" fill="#faf5ec" stroke="#27313b" stroke-width="3"/>
      <path d="M90 190 l8 -20 l6 20 l20 2 l-16 14 l6 18 l-18 -10 l-18 10 l6 -18 l-16 -14z" fill="#ffd84d" stroke="#27313b" stroke-width="3" stroke-linejoin="round" transform="rotate(-8 92 198)"/>
      <ellipse cx="130" cy="304" rx="22" ry="12" fill="#faf5ec" stroke="#27313b" stroke-width="3"/>
      <ellipse cx="190" cy="304" rx="22" ry="12" fill="#faf5ec" stroke="#27313b" stroke-width="3"/>
    </svg>
  </g>
</svg>
