<svg xmlns="http://www.w3.org/2000/svg" viewBox="0 0 512 512" role="img" aria-label="Banghub English app icon">
  <rect width="512" height="512" rx="112" fill="#fff9ef"/>
  <circle cx="256" cy="256" r="176" fill="#ffe08a"/>
  <path fill="#182028" d="M154 180c0-25 20-45 45-45h114c59 0 96 31 96 79 0 30-15 53-41 66 34 12 54 40 54 78 0 56-42 91-109 91H199c-25 0-45-20-45-45V180zm83 80h68c28 0 44-13 44-36 0-22-16-35-44-35h-68v71zm0 135h75c31 0 49-15 49-41 0-27-18-42-49-42h-75v83z"/>
  <path fill="#2f8f83" d="M92 332c34 48 92 80 164 80 55 0 104-19 139-51 8-7 20 4 13 13-38 48-92 78-152 78-84 0-150-41-186-103-6-11 15-27 22-17z"/>
</svg>
