<svg xmlns="http://www.w3.org/2000/svg" viewBox="0 0 320 240" role="img" aria-labelledby="title desc">
  <title id="title">Red apple</title>
  <desc id="desc">A shiny red apple on a picnic blanket in a toy forest.</desc>
  <rect width="320" height="240" fill="#dff5ff"/>
  <circle cx="260" cy="46" r="22" fill="#ffd84d"/>
  <path d="M0 176c42-20 84-18 126 0 38 16 78 18 118 0 30-14 56-14 76 0v64H0z" fill="#75ca6c"/>
  <rect x="42" y="82" width="30" height="94" rx="15" fill="#56a85d"/>
  <circle cx="57" cy="76" r="24" fill="#83d57a"/>
  <rect x="248" y="82" width="30" height="94" rx="15" fill="#56a85d"/>
  <circle cx="263" cy="76" r="24" fill="#83d57a"/>
  <path d="M154 86c-12-16-8-34 12-44 8 18 3 34-12 44z" fill="#6f9a3c"/>
  <rect x="148" y="62" width="14" height="38" rx="7" fill="#7a4d30"/>
  <path d="M160 91c15-20 58-10 64 34 7 50-30 78-64 58-34 20-71-8-64-58 6-44 49-54 64-34z" fill="#e8463f"/>
  <path d="M160 92c10-14 36-10 48 11-38-8-70 12-88 48-7-44 26-73 40-59z" fill="#f25b52"/>
  <ellipse cx="184" cy="120" rx="14" ry="22" fill="#ff9a8d" opacity=".75"/>
  <path d="M130 184h60" stroke="#4fa85a" stroke-width="10" stroke-linecap="round"/>
</svg>
