<svg xmlns="http://www.w3.org/2000/svg" viewBox="0 0 320 240" role="img" aria-labelledby="title desc">
  <title id="title">Good night scene</title>
  <desc id="desc">A peaceful night sky with a crescent moon and twinkling stars above a little forest.</desc>
  <rect width="320" height="240" fill="#141b3a"/>
  <g fill="#fff1a8">
    <circle cx="50" cy="48" r="3"/>
    <circle cx="90" cy="80" r="2"/>
    <circle cx="40" cy="120" r="2"/>
    <circle cx="220" cy="30" r="2"/>
    <circle cx="280" cy="70" r="3"/>
    <circle cx="260" cy="130" r="2"/>
    <circle cx="110" cy="40" r="2"/>
    <circle cx="200" cy="110" r="2"/>
  </g>
  <g stroke="#fff1a8" stroke-width="1.5">
    <line x1="44" y1="48" x2="56" y2="48"/>
    <line x1="50" y1="42" x2="50" y2="54"/>
    <line x1="274" y1="70" x2="286" y2="70"/>
    <line x1="280" y1="64" x2="280" y2="76"/>
  </g>
  <path d="M248 54a34 34 0 1 0 20 50 26 26 0 1 1-20-50z" fill="#ffe9a0"/>
  <path d="M0 200q60-20 120 0 50-20 100 0 40-18 100 0v40H0z" fill="#1e2a5a"/>
  <g fill="#0f1840">
    <path d="M60 178l12-32 12 32z"/>
    <path d="M110 182l14-40 14 40z"/>
    <path d="M180 178l12-36 12 36z"/>
    <path d="M240 184l10-28 10 28z"/>
  </g>
</svg>
