<svg xmlns="http://www.w3.org/2000/svg" viewBox="0 0 320 240" role="img" aria-labelledby="title desc">
  <title id="title">Green toy dinosaur</title>
  <desc id="desc">A friendly green toy dinosaur in a sunny forest.</desc>
  <rect width="320" height="240" fill="#dff5ff"/>
  <circle cx="262" cy="44" r="23" fill="#ffd84d"/>
  <path d="M0 178c42-20 82-18 122 0 40 18 80 18 120 0 32-14 58-14 78 0v62H0z" fill="#72c96b"/>
  <rect x="34" y="88" width="30" height="88" rx="15" fill="#56a75c"/>
  <circle cx="49" cy="82" r="24" fill="#80d477"/>
  <rect x="252" y="86" width="28" height="90" rx="14" fill="#56a75c"/>
  <circle cx="266" cy="80" r="23" fill="#80d477"/>
  <path d="M86 156c0-38 30-68 70-68h30c28 0 52 24 52 52v40H90c-3-8-4-16-4-24z" fill="#43b85a"/>
  <path d="M190 90l34-26 18 14-28 32z" fill="#43b85a"/>
  <circle cx="224" cy="74" r="4" fill="#24313b"/>
  <path d="M229 88c7 4 13 4 20 0" fill="none" stroke="#24313b" stroke-width="5" stroke-linecap="round"/>
  <path d="M116 88l14-18 14 18 14-18 14 18 14-18 14 18z" fill="#ffd84d"/>
  <path d="M86 158l-34-18 6-18 40 16z" fill="#43b85a"/>
  <rect x="116" y="176" width="28" height="34" rx="10" fill="#2f9548"/>
  <rect x="184" y="176" width="28" height="34" rx="10" fill="#2f9548"/>
  <circle cx="146" cy="138" r="8" fill="#a8e68f"/>
  <circle cx="178" cy="130" r="7" fill="#a8e68f"/>
  <circle cx="204" cy="150" r="7" fill="#a8e68f"/>
</svg>
