<svg xmlns="http://www.w3.org/2000/svg" viewBox="0 0 320 240" role="img" aria-labelledby="title desc">
  <title id="title">Hopping bunny</title>
  <desc id="desc">A small white bunny hopping across a grassy meadow.</desc>
  <rect width="320" height="240" fill="#ecfbe4"/>
  <path d="M0 200q80-20 160 0t160 0v40H0z" fill="#87d070"/>
  <ellipse cx="160" cy="168" rx="62" ry="38" fill="#fafafa" stroke="#d6d6d6" stroke-width="3"/>
  <circle cx="210" cy="152" r="28" fill="#fafafa" stroke="#d6d6d6" stroke-width="3"/>
  <path d="M198 128c-10-30-6-54 2-60 6 6 10 28 6 56z" fill="#fafafa" stroke="#d6d6d6" stroke-width="3"/>
  <path d="M218 124c-6-30-2-52 8-58 6 6 8 28 4 54z" fill="#fafafa" stroke="#d6d6d6" stroke-width="3"/>
  <circle cx="218" cy="150" r="4" fill="#2a2a2a"/>
  <circle cx="222" cy="160" r="3" fill="#f298b8"/>
  <path d="M110 184c-10 0-18 6-18 14 0 6 6 10 14 10z" fill="#fafafa" stroke="#d6d6d6" stroke-width="3"/>
  <path d="M122 200q-18 6-40 2" stroke="#6a6a6a" stroke-width="3" fill="none" stroke-linecap="round"/>
</svg>
