<svg xmlns="http://www.w3.org/2000/svg" viewBox="0 0 320 240" role="img" aria-labelledby="title desc">
  <title id="title">Jumping toy robot</title>
  <desc id="desc">A happy toy robot jumping in a sunny forest clearing.</desc>
  <rect width="320" height="240" fill="#dff5ff"/>
  <circle cx="260" cy="44" r="22" fill="#ffd84d"/>
  <path d="M0 178c42-20 82-18 124 0 38 16 78 18 118 0 32-14 58-14 78 0v62H0z" fill="#73c96b"/>
  <rect x="42" y="82" width="30" height="94" rx="15" fill="#56a85d"/>
  <circle cx="57" cy="76" r="24" fill="#83d57a"/>
  <rect x="248" y="82" width="30" height="94" rx="15" fill="#56a85d"/>
  <circle cx="263" cy="76" r="24" fill="#83d57a"/>
  <path d="M92 144c14-32 28-48 48-48h42c20 0 36 16 48 48" fill="none" stroke="#2f85e8" stroke-width="14" stroke-linecap="round"/>
  <rect x="116" y="82" width="88" height="78" rx="18" fill="#69b7ff"/>
  <rect x="132" y="62" width="56" height="34" rx="14" fill="#4aa3ff"/>
  <circle cx="144" cy="118" r="8" fill="#26323c"/>
  <circle cx="176" cy="118" r="8" fill="#26323c"/>
  <path d="M142 138c12 8 24 8 36 0" fill="none" stroke="#26323c" stroke-width="6" stroke-linecap="round"/>
  <rect x="122" y="160" width="20" height="36" rx="10" transform="rotate(18 132 178)" fill="#2f85e8"/>
  <rect x="178" y="160" width="20" height="36" rx="10" transform="rotate(-18 188 178)" fill="#2f85e8"/>
  <path d="M118 204c13-8 27-8 40 0M164 204c13-8 27-8 40 0" fill="none" stroke="#26323c" stroke-width="7" stroke-linecap="round"/>
  <path d="M94 74l-16-18m148 18l16-18M160 42V18" fill="none" stroke="#ffd84d" stroke-width="8" stroke-linecap="round"/>
</svg>
