<svg xmlns="http://www.w3.org/2000/svg" viewBox="0 0 320 240" role="img" aria-labelledby="title desc">
  <title id="title">Red toy car</title>
  <desc id="desc">A simple red toy car rolling through a friendly green forest.</desc>
  <rect width="320" height="240" fill="#dff5ff"/>
  <circle cx="264" cy="44" r="22" fill="#ffd84d"/>
  <path d="M0 178c42-20 78-18 116 0s76 22 116 2 62-24 88-10v70H0z" fill="#73c96b"/>
  <path d="M28 184c24-24 50-24 74 0 24-24 50-24 74 0 24-24 50-24 74 0 24-24 48-24 70-2v58H28z" fill="#4fa85a"/>
  <rect x="38" y="78" width="34" height="88" rx="17" fill="#5bb96a"/>
  <circle cx="55" cy="72" r="25" fill="#77cf73"/>
  <rect x="248" y="70" width="30" height="96" rx="15" fill="#5bb96a"/>
  <circle cx="263" cy="64" r="24" fill="#77cf73"/>
  <path d="M82 128h132l24 30v24H62v-30c0-13 9-24 20-24z" fill="#e8463f"/>
  <path d="M112 98h68c14 0 28 12 36 30H88c8-18 15-30 24-30z" fill="#f25a50"/>
  <path d="M124 108h48c10 0 18 8 24 20h-86c5-12 9-20 14-20z" fill="#8ed9ff"/>
  <circle cx="100" cy="184" r="23" fill="#27313b"/>
  <circle cx="100" cy="184" r="10" fill="#f7fbff"/>
  <circle cx="200" cy="184" r="23" fill="#27313b"/>
  <circle cx="200" cy="184" r="10" fill="#f7fbff"/>
  <rect x="66" y="156" width="28" height="12" rx="6" fill="#ffcf45"/>
  <rect x="216" y="158" width="18" height="10" rx="5" fill="#fff3a3"/>
</svg>
