<svg xmlns="http://www.w3.org/2000/svg" viewBox="0 0 320 240" role="img" aria-labelledby="title desc">
  <title id="title">Sleepy moon</title>
  <desc id="desc">A friendly crescent moon with closed eyes, resting in the night sky.</desc>
  <rect width="320" height="240" fill="#1c2753"/>
  <g fill="#fff1a8">
    <circle cx="60" cy="50" r="3"/>
    <circle cx="260" cy="40" r="3"/>
    <circle cx="90" cy="200" r="2"/>
    <circle cx="250" cy="210" r="3"/>
    <circle cx="30" cy="140" r="2"/>
    <circle cx="290" cy="150" r="2"/>
  </g>
  <path d="M210 120c0 44-36 80-80 80-12 0-24-3-34-8 34-2 62-30 62-66s-28-66-62-68c10-5 22-8 34-8 44 0 80 26 80 70z" fill="#ffe9a0"/>
  <g stroke="#7a5e1a" stroke-width="4" stroke-linecap="round" fill="none">
    <path d="M126 118c6-6 14-6 20 0"/>
    <path d="M158 118c6-6 14-6 20 0"/>
  </g>
  <path d="M135 150q10 10 20 0" stroke="#7a5e1a" stroke-width="3" fill="none" stroke-linecap="round"/>
</svg>
