<svg xmlns="http://www.w3.org/2000/svg" viewBox="0 0 320 320" role="img" aria-labelledby="title desc">
  <title id="title">Dino the playful dinosaur</title>
  <desc id="desc">A small round green dinosaur mid-hop with soft back spikes and a happy open smile.</desc>
  <g stroke="#27313b" stroke-width="4" stroke-linejoin="round" stroke-linecap="round">
    <path d="M118 118 q10 -28 28 -18 q2 14 -28 18z" fill="#4fa85a" stroke-width="3"/>
    <path d="M148 108 q12 -30 30 -18 q2 16 -30 18z" fill="#4fa85a" stroke-width="3"/>
    <path d="M180 110 q12 -26 28 -14 q2 14 -28 14z" fill="#4fa85a" stroke-width="3"/>
    <ellipse cx="160" cy="190" rx="88" ry="98" fill="#87d070"/>
    <ellipse cx="160" cy="226" rx="54" ry="58" fill="#b9e8b6" stroke-width="3"/>
    <ellipse cx="78" cy="206" rx="16" ry="22" fill="#87d070" stroke-width="3"/>
    <ellipse cx="242" cy="206" rx="16" ry="22" fill="#87d070" stroke-width="3"/>
    <ellipse cx="118" cy="286" rx="22" ry="22" fill="#87d070" stroke-width="3"/>
    <ellipse cx="202" cy="286" rx="22" ry="22" fill="#87d070" stroke-width="3"/>
  </g>
  <g fill="#ffffff" stroke="#27313b" stroke-width="3">
    <circle cx="128" cy="150" r="14"/>
    <circle cx="192" cy="150" r="14"/>
  </g>
  <g fill="#27313b">
    <circle cx="130" cy="152" r="7"/>
    <circle cx="194" cy="152" r="7"/>
  </g>
  <g fill="#ffffff">
    <circle cx="133" cy="149" r="2.5"/>
    <circle cx="197" cy="149" r="2.5"/>
  </g>
  <path d="M124 196 q36 36 72 0 z" fill="#e55a5a" stroke="#27313b" stroke-width="4" stroke-linejoin="round"/>
  <path d="M124 196 q36 6 72 0" stroke="none" fill="#f39aa0"/>
  <circle cx="106" cy="186" r="9" fill="#f298b8" opacity="0.4"/>
  <circle cx="214" cy="186" r="9" fill="#f298b8" opacity="0.4"/>
  <g stroke="#27313b" stroke-width="3" stroke-linecap="round">
    <line x1="86" y1="316" x2="70" y2="316"/>
    <line x1="110" y1="316" x2="100" y2="316"/>
    <line x1="234" y1="316" x2="250" y2="316"/>
    <line x1="210" y1="316" x2="220" y2="316"/>
  </g>
</svg>
