<svg xmlns="http://www.w3.org/2000/svg" viewBox="0 0 320 320" role="img" aria-labelledby="title desc">
  <title id="title">Robo the friendly robot</title>
  <desc id="desc">A round sky-blue child-shaped robot with a yellow antenna, waving hello.</desc>
  <g stroke="#27313b" stroke-width="4" stroke-linejoin="round" stroke-linecap="round">
    <line x1="160" y1="50" x2="160" y2="24" fill="none"/>
    <circle cx="160" cy="20" r="10" fill="#ffd84d"/>
    <rect x="96" y="52" width="128" height="110" rx="36" fill="#dff5ff"/>
    <rect x="148" y="160" width="24" height="14" rx="4" fill="#5aa9d8"/>
    <rect x="84" y="170" width="152" height="118" rx="30" fill="#dff5ff"/>
    <rect x="126" y="196" width="68" height="46" rx="8" fill="#5aa9d8"/>
    <circle cx="160" cy="219" r="7" fill="#ffd84d" stroke-width="3"/>
    <rect x="62" y="204" width="28" height="56" rx="12" fill="#dff5ff"/>
    <path d="M236 196 q22 -22 42 -38" fill="none"/>
    <circle cx="282" cy="152" r="18" fill="#dff5ff"/>
    <rect x="108" y="284" width="32" height="26" rx="12" fill="#dff5ff"/>
    <rect x="180" y="284" width="32" height="26" rx="12" fill="#dff5ff"/>
  </g>
  <g fill="#27313b">
    <circle cx="132" cy="102" r="9"/>
    <circle cx="188" cy="102" r="9"/>
  </g>
  <g fill="#ffffff">
    <circle cx="135" cy="99" r="3"/>
    <circle cx="191" cy="99" r="3"/>
  </g>
  <path d="M141 130 q19 14 38 0" stroke="#27313b" stroke-width="3" fill="none" stroke-linecap="round"/>
  <circle cx="112" cy="128" r="8" fill="#f298b8" opacity="0.4"/>
  <circle cx="208" cy="128" r="8" fill="#f298b8" opacity="0.4"/>
</svg>
